mtllib ./SampleScene_8.mtl
g Cube (6)
v -5.829999 0 -17.58
v -5.83 0 -7.579999
v -5.829999 10 -17.58
v -5.83 10 -7.579999
v -4.829999 10 -17.58
v -4.83 10 -7.579999
v -4.829999 0 -17.58
v -4.83 0 -7.579999
v -5.829999 10 -17.58
v -5.83 10 -7.579999
v -4.829999 10 -17.58
v -4.83 10 -7.579999
v -4.829999 0 -17.58
v -5.829999 0 -17.58
v -5.83 0 -7.579999
v -4.83 0 -7.579999
v -5.83 0 -7.579999
v -5.83 10 -7.579999
v -4.83 10 -7.579999
v -4.83 0 -7.579999
v -4.829999 0 -17.58
v -4.829999 10 -17.58
v -5.829999 10 -17.58
v -5.829999 0 -17.58

vn -1 0 -1.192093E-07
vn -1 0 -1.192093E-07
vn -1 0 -1.192093E-07
vn -1 0 -1.192093E-07
vn 0 1 0
vn 0 1 0
vn 1 0 1.192093E-07
vn 1 0 1.192093E-07
vn 0 1 0
vn 0 1 0
vn 1 0 1.192093E-07
vn 1 0 1.192093E-07
vn 0 -1 0
vn 0 -1 0
vn 0 -1 0
vn 0 -1 0
vn -1.192093E-07 0 1
vn -1.192093E-07 0 1
vn -1.192093E-07 0 1
vn -1.192093E-07 0 1
vn 1.192093E-07 0 -1
vn 1.192093E-07 0 -1
vn 1.192093E-07 0 -1
vn 1.192093E-07 0 -1

vt 0 0
vt 1 0
vt 0 1
vt 1 1
vt 0 1
vt 1 1
vt 0 1
vt 1 1
vt 0 0
vt 1 0
vt 0 0
vt 1 0
vt 0 0
vt 0 1
vt 1 1
vt 1 0
vt 0 0
vt 0 1
vt 1 1
vt 1 0
vt 0 0
vt 0 1
vt 1 1
vt 1 0

usemtl Default-Line
usemap Default-Line
f 3/3/3 1/1/1 4/4/4
f 4/4/4 1/1/1 2/2/2
f 5/5/5 9/9/9 6/6/6
f 6/6/6 9/9/9 10/10/10
f 7/7/7 11/11/11 8/8/8
f 8/8/8 11/11/11 12/12/12
f 14/14/14 13/13/13 15/15/15
f 15/15/15 13/13/13 16/16/16
f 18/18/18 17/17/17 19/19/19
f 19/19/19 17/17/17 20/20/20
f 22/22/22 21/21/21 23/23/23
f 23/23/23 21/21/21 24/24/24
g Cube (5)
v 12.65 0 -17.45
v 12.65 0 -7.449999
v 12.65 10 -17.45
v 12.65 10 -7.449999
v 13.65 10 -17.45
v 13.65 10 -7.449999
v 13.65 0 -17.45
v 13.65 0 -7.449999
v 12.65 10 -17.45
v 12.65 10 -7.449999
v 13.65 10 -17.45
v 13.65 10 -7.449999
v 13.65 0 -17.45
v 12.65 0 -17.45
v 12.65 0 -7.449999
v 13.65 0 -7.449999
v 12.65 0 -7.449999
v 12.65 10 -7.449999
v 13.65 10 -7.449999
v 13.65 0 -7.449999
v 13.65 0 -17.45
v 13.65 10 -17.45
v 12.65 10 -17.45
v 12.65 0 -17.45

vn -1 0 -1.192093E-07
vn -1 0 -1.192093E-07
vn -1 0 -1.192093E-07
vn -1 0 -1.192093E-07
vn 0 1 0
vn 0 1 0
vn 1 0 1.192093E-07
vn 1 0 1.192093E-07
vn 0 1 0
vn 0 1 0
vn 1 0 1.192093E-07
vn 1 0 1.192093E-07
vn 0 -1 0
vn 0 -1 0
vn 0 -1 0
vn 0 -1 0
vn -1.192093E-07 0 1
vn -1.192093E-07 0 1
vn -1.192093E-07 0 1
vn -1.192093E-07 0 1
vn 1.192093E-07 0 -1
vn 1.192093E-07 0 -1
vn 1.192093E-07 0 -1
vn 1.192093E-07 0 -1

vt 0 0
vt 1 0
vt 0 1
vt 1 1
vt 0 1
vt 1 1
vt 0 1
vt 1 1
vt 0 0
vt 1 0
vt 0 0
vt 1 0
vt 0 0
vt 0 1
vt 1 1
vt 1 0
vt 0 0
vt 0 1
vt 1 1
vt 1 0
vt 0 0
vt 0 1
vt 1 1
vt 1 0

usemtl Default-Line
usemap Default-Line
f 27/27/27 25/25/25 28/28/28
f 28/28/28 25/25/25 26/26/26
f 29/29/29 33/33/33 30/30/30
f 30/30/30 33/33/33 34/34/34
f 31/31/31 35/35/35 32/32/32
f 32/32/32 35/35/35 36/36/36
f 38/38/38 37/37/37 39/39/39
f 39/39/39 37/37/37 40/40/40
f 42/42/42 41/41/41 43/43/43
f 43/43/43 41/41/41 44/44/44
f 46/46/46 45/45/45 47/47/47
f 47/47/47 45/45/45 48/48/48
g Plane
v -25 -1.110223E-16 25
v -20 -1.110223E-16 25
v -15 -1.110223E-16 25
v -9.999999 -1.110223E-16 25
v -5 -1.110223E-16 25
v 0 -1.110223E-16 25
v 5.000001 -1.110223E-16 25
v 9.999999 -1.110223E-16 25
v 15 -1.110223E-16 25
v 20 -1.110223E-16 25
v 25 -1.110223E-16 25
v -25 -8.881784E-17 20
v -20 -8.881784E-17 20
v -15 -8.881784E-17 20
v -9.999999 -8.881784E-17 20
v -5 -8.881784E-17 20
v 0 -8.881784E-17 20
v 5.000001 -8.881784E-17 20
v 9.999999 -8.881784E-17 20
v 15 -8.881784E-17 20
v 20 -8.881784E-17 20
v 25 -8.881784E-17 20
v -25 -6.661338E-17 15
v -20 -6.661338E-17 15
v -15 -6.661338E-17 15
v -9.999999 -6.661338E-17 15
v -5 -6.661338E-17 15
v 0 -6.661338E-17 15
v 5.000001 -6.661338E-17 15
v 9.999999 -6.661338E-17 15
v 15 -6.661338E-17 15
v 20 -6.661338E-17 15
v 25 -6.661338E-17 15
v -25 -4.440892E-17 9.999999
v -20 -4.440892E-17 9.999999
v -15 -4.440892E-17 9.999999
v -9.999999 -4.440892E-17 9.999999
v -5 -4.440892E-17 9.999999
v 0 -4.440892E-17 9.999999
v 5.000001 -4.440892E-17 9.999999
v 9.999999 -4.440892E-17 9.999999
v 15 -4.440892E-17 9.999999
v 20 -4.440892E-17 9.999999
v 25 -4.440892E-17 9.999999
v -25 -2.220446E-17 5
v -20 -2.220446E-17 5
v -15 -2.220446E-17 5
v -9.999999 -2.220446E-17 5
v -5 -2.220446E-17 5
v 0 -2.220446E-17 5
v 5.000001 -2.220446E-17 5
v 9.999999 -2.220446E-17 5
v 15 -2.220446E-17 5
v 20 -2.220446E-17 5
v 25 -2.220446E-17 5
v -25 0 0
v -20 0 0
v -15 0 0
v -9.999999 0 0
v -5 0 0
v 0 0 0
v 5.000001 0 0
v 9.999999 0 0
v 15 0 0
v 20 0 0
v 25 0 0
v -25 2.220447E-17 -5.000001
v -20 2.220447E-17 -5.000001
v -15 2.220447E-17 -5.000001
v -9.999999 2.220447E-17 -5.000001
v -5 2.220447E-17 -5.000001
v 0 2.220447E-17 -5.000001
v 5.000001 2.220447E-17 -5.000001
v 9.999999 2.220447E-17 -5.000001
v 15 2.220447E-17 -5.000001
v 20 2.220447E-17 -5.000001
v 25 2.220447E-17 -5.000001
v -25 4.440892E-17 -9.999999
v -20 4.440892E-17 -9.999999
v -15 4.440892E-17 -9.999999
v -9.999999 4.440892E-17 -9.999999
v -5 4.440892E-17 -9.999999
v 0 4.440892E-17 -9.999999
v 5.000001 4.440892E-17 -9.999999
v 9.999999 4.440892E-17 -9.999999
v 15 4.440892E-17 -9.999999
v 20 4.440892E-17 -9.999999
v 25 4.440892E-17 -9.999999
v -25 6.661338E-17 -15
v -20 6.661338E-17 -15
v -15 6.661338E-17 -15
v -9.999999 6.661338E-17 -15
v -5 6.661338E-17 -15
v 0 6.661338E-17 -15
v 5.000001 6.661338E-17 -15
v 9.999999 6.661338E-17 -15
v 15 6.661338E-17 -15
v 20 6.661338E-17 -15
v 25 6.661338E-17 -15
v -25 8.881785E-17 -20
v -20 8.881785E-17 -20
v -15 8.881785E-17 -20
v -9.999999 8.881785E-17 -20
v -5 8.881785E-17 -20
v 0 8.881785E-17 -20
v 5.000001 8.881785E-17 -20
v 9.999999 8.881785E-17 -20
v 15 8.881785E-17 -20
v 20 8.881785E-17 -20
v 25 8.881785E-17 -20
v -25 1.110223E-16 -25
v -20 1.110223E-16 -25
v -15 1.110223E-16 -25
v -9.999999 1.110223E-16 -25
v -5 1.110223E-16 -25
v 0 1.110223E-16 -25
v 5.000001 1.110223E-16 -25
v 9.999999 1.110223E-16 -25
v 15 1.110223E-16 -25
v 20 1.110223E-16 -25
v 25 1.110223E-16 -25

vn 0 1 0
vn 0 1 0
vn 0 1 0
vn 0 1 0
vn 0 1 0
vn 0 1 0
vn 0 1 0
vn 0 1 0
vn 0 1 0
vn 0 1 0
vn 0 1 0
vn 0 1 0
vn 0 1 0
vn 0 1 0
vn 0 1 0
vn 0 1 0
vn 0 1 0
vn 0 1 0
vn 0 1 0
vn 0 1 0
vn 0 1 0
vn 0 1 0
vn 0 1 0
vn 0 1 0
vn 0 1 0
vn 0 1 0
vn 0 1 0
vn 0 1 0
vn 0 1 0
vn 0 1 0
vn 0 1 0
vn 0 1 0
vn 0 1 0
vn 0 1 0
vn 0 1 0
vn 0 1 0
vn 0 1 0
vn 0 1 0
vn 0 1 0
vn 0 1 0
vn 0 1 0
vn 0 1 0
vn 0 1 0
vn 0 1 0
vn 0 1 0
vn 0 1 0
vn 0 1 0
vn 0 1 0
vn 0 1 0
vn 0 1 0
vn 0 1 0
vn 0 1 0
vn 0 1 0
vn 0 1 0
vn 0 1 0
vn 0 1 0
vn 0 1 0
vn 0 1 0
vn 0 1 0
vn 0 1 0
vn 0 1 0
vn 0 1 0
vn 0 1 0
vn 0 1 0
vn 0 1 0
vn 0 1 0
vn 0 1 0
vn 0 1 0
vn 0 1 0
vn 0 1 0
vn 0 1 0
vn 0 1 0
vn 0 1 0
vn 0 1 0
vn 0 1 0
vn 0 1 0
vn 0 1 0
vn 0 1 0
vn 0 1 0
vn 0 1 0
vn 0 1 0
vn 0 1 0
vn 0 1 0
vn 0 1 0
vn 0 1 0
vn 0 1 0
vn 0 1 0
vn 0 1 0
vn 0 1 0
vn 0 1 0
vn 0 1 0
vn 0 1 0
vn 0 1 0
vn 0 1 0
vn 0 1 0
vn 0 1 0
vn 0 1 0
vn 0 1 0
vn 0 1 0
vn 0 1 0
vn 0 1 0
vn 0 1 0
vn 0 1 0
vn 0 1 0
vn 0 1 0
vn 0 1 0
vn 0 1 0
vn 0 1 0
vn 0 1 0
vn 0 1 0
vn 0 1 0
vn 0 1 0
vn 0 1 0
vn 0 1 0
vn 0 1 0
vn 0 1 0
vn 0 1 0
vn 0 1 0
vn 0 1 0
vn 0 1 0
vn 0 1 0

vt 0 0
vt 0.1 0
vt 0.2 0
vt 0.3 0
vt 0.4 0
vt 0.5 0
vt 0.6 0
vt 0.7 0
vt 0.8 0
vt 0.9 0
vt 1 0
vt 0 0.1
vt 0.1 0.1
vt 0.2 0.1
vt 0.3 0.1
vt 0.4 0.1
vt 0.5 0.1
vt 0.6 0.1
vt 0.7 0.1
vt 0.8 0.1
vt 0.9 0.1
vt 1 0.1
vt 0 0.2
vt 0.1 0.2
vt 0.2 0.2
vt 0.3 0.2
vt 0.4 0.2
vt 0.5 0.2
vt 0.6 0.2
vt 0.7 0.2
vt 0.8 0.2
vt 0.9 0.2
vt 1 0.2
vt 0 0.3
vt 0.1 0.3
vt 0.2 0.3
vt 0.3 0.3
vt 0.4 0.3
vt 0.5 0.3
vt 0.6 0.3
vt 0.7 0.3
vt 0.8 0.3
vt 0.9 0.3
vt 1 0.3
vt 0 0.4
vt 0.1 0.4
vt 0.2 0.4
vt 0.3 0.4
vt 0.4 0.4
vt 0.5 0.4
vt 0.6 0.4
vt 0.7 0.4
vt 0.8 0.4
vt 0.9 0.4
vt 1 0.4
vt 0 0.5
vt 0.1 0.5
vt 0.2 0.5
vt 0.3 0.5
vt 0.4 0.5
vt 0.5 0.5
vt 0.6 0.5
vt 0.7 0.5
vt 0.8 0.5
vt 0.9 0.5
vt 1 0.5
vt 0 0.6
vt 0.1 0.6
vt 0.2 0.6
vt 0.3 0.6
vt 0.4 0.6
vt 0.5 0.6
vt 0.6 0.6
vt 0.7 0.6
vt 0.8 0.6
vt 0.9 0.6
vt 1 0.6
vt 0 0.7
vt 0.1 0.7
vt 0.2 0.7
vt 0.3 0.7
vt 0.4 0.7
vt 0.5 0.7
vt 0.6 0.7
vt 0.7 0.7
vt 0.8 0.7
vt 0.9 0.7
vt 1 0.7
vt 0 0.8
vt 0.1 0.8
vt 0.2 0.8
vt 0.3 0.8
vt 0.4 0.8
vt 0.5 0.8
vt 0.6 0.8
vt 0.7 0.8
vt 0.8 0.8
vt 0.9 0.8
vt 1 0.8
vt 0 0.9
vt 0.1 0.9
vt 0.2 0.9
vt 0.3 0.9
vt 0.4 0.9
vt 0.5 0.9
vt 0.6 0.9
vt 0.7 0.9
vt 0.8 0.9
vt 0.9 0.9
vt 1 0.9
vt 0 1
vt 0.1 1
vt 0.2 1
vt 0.3 1
vt 0.4 1
vt 0.5 1
vt 0.6 1
vt 0.7 1
vt 0.8 1
vt 0.9 1
vt 1 1

usemtl red
usemap red
f 60/60/60 49/49/49 61/61/61
f 61/61/61 49/49/49 50/50/50
f 61/61/61 50/50/50 62/62/62
f 62/62/62 50/50/50 51/51/51
f 62/62/62 51/51/51 63/63/63
f 63/63/63 51/51/51 52/52/52
f 63/63/63 52/52/52 64/64/64
f 64/64/64 52/52/52 53/53/53
f 64/64/64 53/53/53 65/65/65
f 65/65/65 53/53/53 54/54/54
f 65/65/65 54/54/54 66/66/66
f 66/66/66 54/54/54 55/55/55
f 66/66/66 55/55/55 67/67/67
f 67/67/67 55/55/55 56/56/56
f 67/67/67 56/56/56 68/68/68
f 68/68/68 56/56/56 57/57/57
f 68/68/68 57/57/57 69/69/69
f 69/69/69 57/57/57 58/58/58
f 69/69/69 58/58/58 70/70/70
f 70/70/70 58/58/58 59/59/59
f 75/75/75 63/63/63 64/64/64
f 75/75/75 64/64/64 76/76/76
f 76/76/76 64/64/64 65/65/65
f 76/76/76 65/65/65 77/77/77
f 77/77/77 65/65/65 66/66/66
f 77/77/77 66/66/66 78/78/78
f 78/78/78 66/66/66 67/67/67
f 78/78/78 67/67/67 79/79/79
f 79/79/79 67/67/67 68/68/68
f 79/79/79 68/68/68 80/80/80
f 80/80/80 68/68/68 69/69/69
f 80/80/80 69/69/69 81/81/81
f 81/81/81 69/69/69 70/70/70
f 87/87/87 75/75/75 76/76/76
f 86/86/86 75/75/75 87/87/87
f 86/86/86 74/74/74 75/75/75
f 74/74/74 63/63/63 75/75/75
f 74/74/74 62/62/62 63/63/63
f 73/73/73 62/62/62 74/74/74
f 73/73/73 61/61/61 62/62/62
f 72/72/72 61/61/61 73/73/73
f 72/72/72 60/60/60 61/61/61
f 71/71/71 60/60/60 72/72/72
f 83/83/83 71/71/71 72/72/72
f 82/82/82 71/71/71 83/83/83
f 83/83/83 72/72/72 84/84/84
f 84/84/84 72/72/72 73/73/73
f 84/84/84 73/73/73 85/85/85
f 85/85/85 73/73/73 74/74/74
f 85/85/85 74/74/74 86/86/86
f 92/92/92 80/80/80 81/81/81
f 94/94/94 82/82/82 83/83/83
f 93/93/93 82/82/82 94/94/94
f 94/94/94 83/83/83 95/95/95
f 95/95/95 83/83/83 84/84/84
f 95/95/95 84/84/84 96/96/96
f 96/96/96 84/84/84 85/85/85
f 96/96/96 85/85/85 97/97/97
f 97/97/97 85/85/85 86/86/86
f 97/97/97 86/86/86 98/98/98
f 98/98/98 86/86/86 87/87/87
f 98/98/98 87/87/87 99/99/99
f 99/99/99 87/87/87 88/88/88
f 87/87/87 76/76/76 88/88/88
f 88/88/88 76/76/76 77/77/77
f 88/88/88 77/77/77 89/89/89
f 89/89/89 77/77/77 78/78/78
f 89/89/89 78/78/78 90/90/90
f 90/90/90 78/78/78 79/79/79
f 90/90/90 79/79/79 91/91/91
f 91/91/91 79/79/79 80/80/80
f 91/91/91 80/80/80 92/92/92
f 99/99/99 88/88/88 100/100/100
f 100/100/100 88/88/88 89/89/89
f 100/100/100 89/89/89 101/101/101
f 101/101/101 89/89/89 90/90/90
f 101/101/101 90/90/90 102/102/102
f 102/102/102 90/90/90 91/91/91
f 102/102/102 91/91/91 103/103/103
f 103/103/103 91/91/91 92/92/92
f 111/111/111 99/99/99 100/100/100
f 110/110/110 99/99/99 111/111/111
f 111/111/111 100/100/100 112/112/112
f 112/112/112 100/100/100 101/101/101
f 112/112/112 101/101/101 113/113/113
f 113/113/113 101/101/101 102/102/102
f 113/113/113 102/102/102 114/114/114
f 114/114/114 102/102/102 103/103/103
f 122/122/122 110/110/110 111/111/111
f 121/121/121 110/110/110 122/122/122
f 121/121/121 109/109/109 110/110/110
f 109/109/109 98/98/98 110/110/110
f 109/109/109 97/97/97 98/98/98
f 108/108/108 97/97/97 109/109/109
f 108/108/108 96/96/96 97/97/97
f 107/107/107 96/96/96 108/108/108
f 107/107/107 95/95/95 96/96/96
f 106/106/106 95/95/95 107/107/107
f 106/106/106 94/94/94 95/95/95
f 105/105/105 94/94/94 106/106/106
f 105/105/105 93/93/93 94/94/94
f 104/104/104 93/93/93 105/105/105
f 116/116/116 104/104/104 105/105/105
f 115/115/115 104/104/104 116/116/116
f 116/116/116 105/105/105 117/117/117
f 117/117/117 105/105/105 106/106/106
f 117/117/117 106/106/106 118/118/118
f 118/118/118 106/106/106 107/107/107
f 118/118/118 107/107/107 119/119/119
f 119/119/119 107/107/107 108/108/108
f 119/119/119 108/108/108 120/120/120
f 120/120/120 108/108/108 109/109/109
f 120/120/120 109/109/109 121/121/121
f 127/127/127 115/115/115 116/116/116
f 126/126/126 115/115/115 127/127/127
f 127/127/127 116/116/116 128/128/128
f 128/128/128 116/116/116 117/117/117
f 128/128/128 117/117/117 129/129/129
f 129/129/129 117/117/117 118/118/118
f 129/129/129 118/118/118 130/130/130
f 130/130/130 118/118/118 119/119/119
f 130/130/130 119/119/119 131/131/131
f 131/131/131 119/119/119 120/120/120
f 131/131/131 120/120/120 132/132/132
f 132/132/132 120/120/120 121/121/121
f 132/132/132 121/121/121 133/133/133
f 133/133/133 121/121/121 122/122/122
f 133/133/133 122/122/122 134/134/134
f 134/134/134 122/122/122 123/123/123
f 122/122/122 111/111/111 123/123/123
f 123/123/123 111/111/111 112/112/112
f 123/123/123 112/112/112 124/124/124
f 124/124/124 112/112/112 113/113/113
f 124/124/124 113/113/113 125/125/125
f 125/125/125 113/113/113 114/114/114
f 134/134/134 123/123/123 135/135/135
f 135/135/135 123/123/123 124/124/124
f 135/135/135 124/124/124 136/136/136
f 136/136/136 124/124/124 125/125/125
f 141/141/141 129/129/129 130/130/130
f 141/141/141 130/130/130 142/142/142
f 142/142/142 130/130/130 131/131/131
f 142/142/142 131/131/131 143/143/143
f 143/143/143 131/131/131 132/132/132
f 143/143/143 132/132/132 144/144/144
f 144/144/144 132/132/132 133/133/133
f 144/144/144 133/133/133 145/145/145
f 145/145/145 133/133/133 134/134/134
f 145/145/145 134/134/134 146/146/146
f 146/146/146 134/134/134 135/135/135
f 146/146/146 135/135/135 147/147/147
f 147/147/147 135/135/135 136/136/136
f 153/153/153 141/141/141 142/142/142
f 152/152/152 141/141/141 153/153/153
f 152/152/152 140/140/140 141/141/141
f 140/140/140 129/129/129 141/141/141
f 140/140/140 128/128/128 129/129/129
f 139/139/139 128/128/128 140/140/140
f 139/139/139 127/127/127 128/128/128
f 138/138/138 127/127/127 139/139/139
f 138/138/138 126/126/126 127/127/127
f 137/137/137 126/126/126 138/138/138
f 149/149/149 137/137/137 138/138/138
f 148/148/148 137/137/137 149/149/149
f 149/149/149 138/138/138 150/150/150
f 150/150/150 138/138/138 139/139/139
f 150/150/150 139/139/139 151/151/151
f 151/151/151 139/139/139 140/140/140
f 151/151/151 140/140/140 152/152/152
f 158/158/158 146/146/146 147/147/147
f 160/160/160 148/148/148 149/149/149
f 159/159/159 148/148/148 160/160/160
f 160/160/160 149/149/149 161/161/161
f 161/161/161 149/149/149 150/150/150
f 161/161/161 150/150/150 162/162/162
f 162/162/162 150/150/150 151/151/151
f 162/162/162 151/151/151 163/163/163
f 163/163/163 151/151/151 152/152/152
f 163/163/163 152/152/152 164/164/164
f 164/164/164 152/152/152 153/153/153
f 164/164/164 153/153/153 165/165/165
f 165/165/165 153/153/153 154/154/154
f 153/153/153 142/142/142 154/154/154
f 154/154/154 142/142/142 143/143/143
f 154/154/154 143/143/143 155/155/155
f 155/155/155 143/143/143 144/144/144
f 155/155/155 144/144/144 156/156/156
f 156/156/156 144/144/144 145/145/145
f 156/156/156 145/145/145 157/157/157
f 157/157/157 145/145/145 146/146/146
f 157/157/157 146/146/146 158/158/158
f 165/165/165 154/154/154 166/166/166
f 166/166/166 154/154/154 155/155/155
f 166/166/166 155/155/155 167/167/167
f 167/167/167 155/155/155 156/156/156
f 167/167/167 156/156/156 168/168/168
f 168/168/168 156/156/156 157/157/157
f 168/168/168 157/157/157 169/169/169
f 169/169/169 157/157/157 158/158/158
f 110/110/110 98/98/98 99/99/99
g Cube (1)
v -5.42 0 -14.2
v 4.58 0 -14.2
v -5.42 10 -14.2
v 4.58 10 -14.2
v -5.42 10 -15.2
v 4.58 10 -15.2
v -5.42 0 -15.2
v 4.58 0 -15.2
v -5.42 10 -14.2
v 4.58 10 -14.2
v -5.42 10 -15.2
v 4.58 10 -15.2
v -5.42 0 -15.2
v -5.42 0 -14.2
v 4.58 0 -14.2
v 4.58 0 -15.2
v 4.58 0 -14.2
v 4.58 10 -14.2
v 4.58 10 -15.2
v 4.58 0 -15.2
v -5.42 0 -15.2
v -5.42 10 -15.2
v -5.42 10 -14.2
v -5.42 0 -14.2

vn 0 0 1
vn 0 0 1
vn 0 0 1
vn 0 0 1
vn 0 1 0
vn 0 1 0
vn 0 0 -1
vn 0 0 -1
vn 0 1 0
vn 0 1 0
vn 0 0 -1
vn 0 0 -1
vn 0 -1 0
vn 0 -1 0
vn 0 -1 0
vn 0 -1 0
vn 1 0 0
vn 1 0 0
vn 1 0 0
vn 1 0 0
vn -1 0 0
vn -1 0 0
vn -1 0 0
vn -1 0 0

vt 0 0
vt 1 0
vt 0 1
vt 1 1
vt 0 1
vt 1 1
vt 0 1
vt 1 1
vt 0 0
vt 1 0
vt 0 0
vt 1 0
vt 0 0
vt 0 1
vt 1 1
vt 1 0
vt 0 0
vt 0 1
vt 1 1
vt 1 0
vt 0 0
vt 0 1
vt 1 1
vt 1 0

usemtl Default-Line
usemap Default-Line
f 172/172/172 170/170/170 173/173/173
f 173/173/173 170/170/170 171/171/171
f 174/174/174 178/178/178 175/175/175
f 175/175/175 178/178/178 179/179/179
f 176/176/176 180/180/180 177/177/177
f 177/177/177 180/180/180 181/181/181
f 183/183/183 182/182/182 184/184/184
f 184/184/184 182/182/182 185/185/185
f 187/187/187 186/186/186 188/188/188
f 188/188/188 186/186/186 189/189/189
f 191/191/191 190/190/190 192/192/192
f 192/192/192 190/190/190 193/193/193
g Cube
v 13.47 0 -14.2
v 23.47 0 -14.2
v 13.47 10 -14.2
v 23.47 10 -14.2
v 13.47 10 -15.2
v 23.47 10 -15.2
v 13.47 0 -15.2
v 23.47 0 -15.2
v 13.47 10 -14.2
v 23.47 10 -14.2
v 13.47 10 -15.2
v 23.47 10 -15.2
v 13.47 0 -15.2
v 13.47 0 -14.2
v 23.47 0 -14.2
v 23.47 0 -15.2
v 23.47 0 -14.2
v 23.47 10 -14.2
v 23.47 10 -15.2
v 23.47 0 -15.2
v 13.47 0 -15.2
v 13.47 10 -15.2
v 13.47 10 -14.2
v 13.47 0 -14.2

vn 0 0 1
vn 0 0 1
vn 0 0 1
vn 0 0 1
vn 0 1 0
vn 0 1 0
vn 0 0 -1
vn 0 0 -1
vn 0 1 0
vn 0 1 0
vn 0 0 -1
vn 0 0 -1
vn 0 -1 0
vn 0 -1 0
vn 0 -1 0
vn 0 -1 0
vn 1 0 0
vn 1 0 0
vn 1 0 0
vn 1 0 0
vn -1 0 0
vn -1 0 0
vn -1 0 0
vn -1 0 0

vt 0 0
vt 1 0
vt 0 1
vt 1 1
vt 0 1
vt 1 1
vt 0 1
vt 1 1
vt 0 0
vt 1 0
vt 0 0
vt 1 0
vt 0 0
vt 0 1
vt 1 1
vt 1 0
vt 0 0
vt 0 1
vt 1 1
vt 1 0
vt 0 0
vt 0 1
vt 1 1
vt 1 0

usemtl Default-Line
usemap Default-Line
f 196/196/196 194/194/194 197/197/197
f 197/197/197 194/194/194 195/195/195
f 198/198/198 202/202/202 199/199/199
f 199/199/199 202/202/202 203/203/203
f 200/200/200 204/204/204 201/201/201
f 201/201/201 204/204/204 205/205/205
f 207/207/207 206/206/206 208/208/208
f 208/208/208 206/206/206 209/209/209
f 211/211/211 210/210/210 212/212/212
f 212/212/212 210/210/210 213/213/213
f 215/215/215 214/214/214 216/216/216
f 216/216/216 214/214/214 217/217/217
g Cube (3)
v -13.76 0 -17.58
v -13.76 0 -7.579999
v -13.76 10 -17.58
v -13.76 10 -7.579999
v -12.76 10 -17.58
v -12.76 10 -7.579999
v -12.76 0 -17.58
v -12.76 0 -7.579999
v -13.76 10 -17.58
v -13.76 10 -7.579999
v -12.76 10 -17.58
v -12.76 10 -7.579999
v -12.76 0 -17.58
v -13.76 0 -17.58
v -13.76 0 -7.579999
v -12.76 0 -7.579999
v -13.76 0 -7.579999
v -13.76 10 -7.579999
v -12.76 10 -7.579999
v -12.76 0 -7.579999
v -12.76 0 -17.58
v -12.76 10 -17.58
v -13.76 10 -17.58
v -13.76 0 -17.58

vn -1 0 -1.192093E-07
vn -1 0 -1.192093E-07
vn -1 0 -1.192093E-07
vn -1 0 -1.192093E-07
vn 0 1 0
vn 0 1 0
vn 1 0 1.192093E-07
vn 1 0 1.192093E-07
vn 0 1 0
vn 0 1 0
vn 1 0 1.192093E-07
vn 1 0 1.192093E-07
vn 0 -1 0
vn 0 -1 0
vn 0 -1 0
vn 0 -1 0
vn -1.192093E-07 0 1
vn -1.192093E-07 0 1
vn -1.192093E-07 0 1
vn -1.192093E-07 0 1
vn 1.192093E-07 0 -1
vn 1.192093E-07 0 -1
vn 1.192093E-07 0 -1
vn 1.192093E-07 0 -1

vt 0 0
vt 1 0
vt 0 1
vt 1 1
vt 0 1
vt 1 1
vt 0 1
vt 1 1
vt 0 0
vt 1 0
vt 0 0
vt 1 0
vt 0 0
vt 0 1
vt 1 1
vt 1 0
vt 0 0
vt 0 1
vt 1 1
vt 1 0
vt 0 0
vt 0 1
vt 1 1
vt 1 0

usemtl Default-Line
usemap Default-Line
f 220/220/220 218/218/218 221/221/221
f 221/221/221 218/218/218 219/219/219
f 222/222/222 226/226/226 223/223/223
f 223/223/223 226/226/226 227/227/227
f 224/224/224 228/228/228 225/225/225
f 225/225/225 228/228/228 229/229/229
f 231/231/231 230/230/230 232/232/232
f 232/232/232 230/230/230 233/233/233
f 235/235/235 234/234/234 236/236/236
f 236/236/236 234/234/234 237/237/237
f 239/239/239 238/238/238 240/240/240
f 240/240/240 238/238/238 241/241/241
g Cube (4)
v 4.170001 0 -17.58
v 4.17 0 -7.579999
v 4.170001 10 -17.58
v 4.17 10 -7.579999
v 5.170001 10 -17.58
v 5.17 10 -7.579999
v 5.170001 0 -17.58
v 5.17 0 -7.579999
v 4.170001 10 -17.58
v 4.17 10 -7.579999
v 5.170001 10 -17.58
v 5.17 10 -7.579999
v 5.170001 0 -17.58
v 4.170001 0 -17.58
v 4.17 0 -7.579999
v 5.17 0 -7.579999
v 4.17 0 -7.579999
v 4.17 10 -7.579999
v 5.17 10 -7.579999
v 5.17 0 -7.579999
v 5.170001 0 -17.58
v 5.170001 10 -17.58
v 4.170001 10 -17.58
v 4.170001 0 -17.58

vn -1 0 -1.192093E-07
vn -1 0 -1.192093E-07
vn -1 0 -1.192093E-07
vn -1 0 -1.192093E-07
vn 0 1 0
vn 0 1 0
vn 1 0 1.192093E-07
vn 1 0 1.192093E-07
vn 0 1 0
vn 0 1 0
vn 1 0 1.192093E-07
vn 1 0 1.192093E-07
vn 0 -1 0
vn 0 -1 0
vn 0 -1 0
vn 0 -1 0
vn -1.192093E-07 0 1
vn -1.192093E-07 0 1
vn -1.192093E-07 0 1
vn -1.192093E-07 0 1
vn 1.192093E-07 0 -1
vn 1.192093E-07 0 -1
vn 1.192093E-07 0 -1
vn 1.192093E-07 0 -1

vt 0 0
vt 1 0
vt 0 1
vt 1 1
vt 0 1
vt 1 1
vt 0 1
vt 1 1
vt 0 0
vt 1 0
vt 0 0
vt 1 0
vt 0 0
vt 0 1
vt 1 1
vt 1 0
vt 0 0
vt 0 1
vt 1 1
vt 1 0
vt 0 0
vt 0 1
vt 1 1
vt 1 0

usemtl Default-Line
usemap Default-Line
f 244/244/244 242/242/242 245/245/245
f 245/245/245 242/242/242 243/243/243
f 246/246/246 250/250/250 247/247/247
f 247/247/247 250/250/250 251/251/251
f 248/248/248 252/252/252 249/249/249
f 249/249/249 252/252/252 253/253/253
f 255/255/255 254/254/254 256/256/256
f 256/256/256 254/254/254 257/257/257
f 259/259/259 258/258/258 260/260/260
f 260/260/260 258/258/258 261/261/261
f 263/263/263 262/262/262 264/264/264
f 264/264/264 262/262/262 265/265/265
g Cube (2)
v -23.12 0 -14.2
v -13.12 0 -14.2
v -23.12 10 -14.2
v -13.12 10 -14.2
v -23.12 10 -15.2
v -13.12 10 -15.2
v -23.12 0 -15.2
v -13.12 0 -15.2
v -23.12 10 -14.2
v -13.12 10 -14.2
v -23.12 10 -15.2
v -13.12 10 -15.2
v -23.12 0 -15.2
v -23.12 0 -14.2
v -13.12 0 -14.2
v -13.12 0 -15.2
v -13.12 0 -14.2
v -13.12 10 -14.2
v -13.12 10 -15.2
v -13.12 0 -15.2
v -23.12 0 -15.2
v -23.12 10 -15.2
v -23.12 10 -14.2
v -23.12 0 -14.2

vn 0 0 1
vn 0 0 1
vn 0 0 1
vn 0 0 1
vn 0 1 0
vn 0 1 0
vn 0 0 -1
vn 0 0 -1
vn 0 1 0
vn 0 1 0
vn 0 0 -1
vn 0 0 -1
vn 0 -1 0
vn 0 -1 0
vn 0 -1 0
vn 0 -1 0
vn 1 0 0
vn 1 0 0
vn 1 0 0
vn 1 0 0
vn -1 0 0
vn -1 0 0
vn -1 0 0
vn -1 0 0

vt 0 0
vt 1 0
vt 0 1
vt 1 1
vt 0 1
vt 1 1
vt 0 1
vt 1 1
vt 0 0
vt 1 0
vt 0 0
vt 1 0
vt 0 0
vt 0 1
vt 1 1
vt 1 0
vt 0 0
vt 0 1
vt 1 1
vt 1 0
vt 0 0
vt 0 1
vt 1 1
vt 1 0

usemtl Default-Line
usemap Default-Line
f 268/268/268 266/266/266 269/269/269
f 269/269/269 266/266/266 267/267/267
f 270/270/270 274/274/274 271/271/271
f 271/271/271 274/274/274 275/275/275
f 272/272/272 276/276/276 273/273/273
f 273/273/273 276/276/276 277/277/277
f 279/279/279 278/278/278 280/280/280
f 280/280/280 278/278/278 281/281/281
f 283/283/283 282/282/282 284/284/284
f 284/284/284 282/282/282 285/285/285
f 287/287/287 286/286/286 288/288/288
f 288/288/288 286/286/286 289/289/289
